<svg width="20" height="20" viewBox="0 0 20 20" fill="none" xmlns="http://www.w3.org/2000/svg">
<path fill-rule="evenodd" clip-rule="evenodd" d="M1 10.38C1.76 11.01 2.73 11.01 4.5 11.01C6.27 11.01 7.24 11.01 8 10.38C8.13 10.27 8.24 10.16 8.38 10C9 9.24001 9 8.27001 9 6.51005V4.51001C9 2.75001 9 1.76999 8.36 0.98999C8.25 0.85999 8.13 0.74001 8 0.63001C7.24 1.01328e-05 6.27 0 4.5 0C2.73 0 1.76 1.01328e-05 1 0.63001C0.87 0.74001 0.76 0.85001 0.62 1.01001C-1.19209e-07 1.77001 0 2.73999 0 4.49996V6.5C0 8.26001 1.01328e-05 9.24001 0.64001 10.02C0.75001 10.15 0.87 10.27 1 10.38ZM1.95996 1.79004C2.29996 1.51004 3.08 1.51001 4.5 1.51001C5.92 1.51001 6.70004 1.51004 7.04004 1.79004C7.12004 1.85004 7.17997 1.91003 7.21997 1.96003C7.49997 2.31003 7.5 3.09001 7.5 4.51001V6.51001C7.5 7.93001 7.49999 8.71001 7.23999 9.03001C7.21627 9.05371 7.19371 9.07751 7.17151 9.10081C7.12821 9.14631 7.08632 9.19031 7.04004 9.23001C6.70004 9.51001 5.92 9.51001 4.5 9.51001C3.08 9.51001 2.29996 9.51001 1.95996 9.23001C1.87996 9.17001 1.82003 9.11001 1.78003 9.06001C1.50003 8.71001 1.5 7.93001 1.5 6.51001V4.51001C1.5 3.09001 1.50001 2.30999 1.76001 1.98999C1.78373 1.96628 1.80629 1.94256 1.82848 1.91924C1.87178 1.87373 1.91368 1.82971 1.95996 1.79004ZM3.49989 19.51H5.5C6.27993 19.51 6.66007 19.51 7.05005 19.39C7.94 19.13 8.62 18.44 8.88 17.57C9 17.17 9 16.76 9 16.0101C9 15.2602 9 14.84 8.88 14.46C8.62 13.57 7.93 12.89 7.05005 12.62C6.66006 12.5 6.27003 12.5 5.50009 12.5H3.5C2.72006 12.5 2.33994 12.5 1.94995 12.62C1.05995 12.88 0.38 13.57 0.12 14.44C-1.11759e-07 14.84 0 15.25 0 15.9999C0 16.7498 -1.11759e-07 17.17 0.12 17.55C0.38 18.44 1.06995 19.12 1.94995 19.39C2.33993 19.51 2.72996 19.51 3.49989 19.51ZM3.49957 14.01H5.5C6.07975 14.01 6.44003 14.01 6.60999 14.06C7.00999 14.18 7.31994 14.49 7.43994 14.9C7.48994 15.07 7.48999 15.42 7.48999 16V16.0018C7.48999 16.5807 7.48999 16.9302 7.43005 17.12C7.31005 17.52 6.99998 17.83 6.59998 17.95C6.43001 18 6.07016 18 5.49039 18H3.48999C2.91023 18 2.54997 18 2.38 17.95C1.98 17.83 1.67005 17.52 1.55005 17.11C1.50005 16.94 1.5 16.59 1.5 16.01C1.5 15.43 1.50006 15.08 1.56006 14.89C1.68006 14.49 1.99001 14.18 2.39001 14.06C2.55997 14.01 2.91982 14.01 3.49957 14.01ZM15 19.51C13.23 19.51 12.26 19.51 11.5 18.88C11.37 18.77 11.25 18.65 11.14 18.52C10.5 17.74 10.5 16.76 10.5 15V13C10.5 11.24 10.5 10.27 11.12 9.51001C11.26 9.35001 11.37 9.24001 11.5 9.13001C12.26 8.50001 13.23 8.50001 15 8.50001C16.77 8.50001 17.74 8.50001 18.5 9.13001C18.63 9.24001 18.75 9.36001 18.86 9.49001C19.5 10.27 19.5 11.25 19.5 13.01V15.01C19.5 16.7699 19.5 17.74 18.88 18.5C18.74 18.66 18.63 18.77 18.5 18.88C17.74 19.51 16.77 19.51 15 19.51ZM15 10.01C13.58 10.01 12.8 10.01 12.46 10.29C12.4137 10.3297 12.3718 10.3737 12.3285 10.4192C12.3063 10.4425 12.2837 10.4663 12.26 10.49C12 10.81 12 11.59 12 13.01V15.01C12 16.43 12 17.21 12.28 17.56C12.32 17.61 12.38 17.67 12.46 17.73C12.8 18.01 13.58 18.01 15 18.01C16.42 18.01 17.2 18.01 17.54 17.73C17.5863 17.6903 17.6282 17.6463 17.6715 17.6008C17.6937 17.5775 17.7163 17.5537 17.74 17.53C18 17.21 18 16.43 18 15.01V13.01C18 11.59 18 10.81 17.72 10.46C17.68 10.41 17.62 10.35 17.54 10.29C17.2 10.01 16.42 10.01 15 10.01ZM14 7.01001H16C16.7799 7.01001 17.1601 7.01001 17.55 6.89002C18.44 6.63002 19.12 5.94001 19.38 5.07001C19.5 4.67003 19.5 4.26005 19.5 3.51012C19.5 2.76018 19.5 2.34001 19.38 1.96003C19.12 1.07003 18.43 0.39 17.55 0.12C17.1601 1.2666e-07 16.77 0 16.0001 0H14C13.2201 0 12.8399 1.2666e-07 12.45 0.12C11.56 0.38 10.88 1.07001 10.62 1.94001C10.5 2.33999 10.5 2.74997 10.5 3.49991C10.5 4.24986 10.5 4.67001 10.62 5.04999C10.88 5.93999 11.57 6.62002 12.45 6.89002C12.8399 7.01001 13.2301 7.01001 14 7.01001ZM13.9996 1.51001H16C16.5798 1.51001 16.94 1.51001 17.11 1.56C17.51 1.68 17.8199 1.99003 17.9399 2.40003C17.9899 2.57003 17.99 2.92 17.99 3.5V3.50183C17.99 4.08074 17.99 4.4302 17.9301 4.62C17.8101 5.02 17.5 5.33002 17.1 5.45002C16.93 5.5 16.5702 5.5 15.9904 5.5H13.99C13.4102 5.5 13.05 5.5 12.88 5.45002C12.48 5.33002 12.17 5.01999 12.05 4.60999C12 4.43999 12 4.09001 12 3.51001C12 2.93001 12.0001 2.58002 12.0601 2.39002C12.1801 1.99002 12.49 1.68 12.89 1.56C13.06 1.51001 13.4198 1.51001 13.9996 1.51001Z" fill="#484D51"/>
</svg>
